<svg xmlns="http://www.w3.org/2000/svg" viewBox="0 0 512 512">
  <defs>
    <filter id="shadow" x="-20%" y="-20%" width="140%" height="140%">
      <feDropShadow dx="0" dy="8" stdDeviation="12" flood-color="#004d2c" flood-opacity="0.2" />
    </filter>
    <filter id="thumb-shadow" x="-20%" y="-20%" width="140%" height="140%">
      <feDropShadow dx="0" dy="4" stdDeviation="6" flood-color="#000000" flood-opacity="0.15" />
    </filter>
    <linearGradient id="bg" x1="0%" y1="0%" x2="100%" y2="100%">
      <stop offset="0%" stop-color="#ffffff" />
      <stop offset="100%" stop-color="#f1f5f9" />
    </linearGradient>
    <linearGradient id="track" x1="0%" y1="0%" x2="100%" y2="100%">
      <stop offset="0%" stop-color="#13ec92" />
      <stop offset="100%" stop-color="#0eb870" />
    </linearGradient>
  </defs>
  
  <!-- Background -->
  <rect width="512" height="512" rx="112" fill="url(#bg)" />
  
  <!-- Toggle Track (ON) -->
  <rect x="128" y="192" width="256" height="128" rx="64" fill="url(#track)" filter="url(#shadow)" />
  
  <!-- Toggle Thumb -->
  <circle cx="320" cy="256" r="48" fill="#ffffff" filter="url(#thumb-shadow)" />
  
  <!-- Sparkle/Star (Emerald) -->
  <path d="M320 224c2 12 10 20 22 22-12 2-20 10-22 22-2-12-10-20-22-22 12-2 20-10 22-22z" fill="#13ec92" />
  <path d="M296 264c1 6 5 10 11 11-6 1-10 5-11 11-1-6-5-10-11-11 6-1 10-5 11-11z" fill="#13ec92" opacity="0.8" />
</svg>
